<svg xmlns="http://www.w3.org/2000/svg" class="header-color" width="32" height="20" viewBox="0 0 32 20" fill="none" style="color: rgb(255, 255, 255);">
  <path d="M23.963 0c-2.153 0-3.99.408-5.51 1.22-1.522.817-2.668 1.971-3.442 3.471-.775 1.5-1.162 3.27-1.162 5.309v.024c-.003 2.18-.541 3.842-1.615 4.991-1.077 1.152-2.607 1.728-4.588 1.728H3.823V3.257h3.823c1.984 0 3.511.576 4.588 1.728.436.465.78 1.014 1.04 1.647.267-1.533.727-2.928 1.38-4.19l.09-.171a8.454 8.454 0 00-1.533-1.05C11.693.408 9.857 0 7.703 0H0v20h7.703c2.154 0 3.99-.408 5.511-1.22 1.518-.817 2.668-1.971 3.442-3.471.771-1.49 1.158-3.254 1.161-5.285V10c0-2.19.539-3.863 1.616-5.015 1.076-1.152 2.607-1.728 4.588-1.728h3.823V16.74H24.02c-1.984 0-3.512-.576-4.588-1.728a5.37 5.37 0 01-1.04-1.65c-.267 1.551-.73 2.967-1.39 4.242l-.072.137c.457.393.965.738 1.525 1.038 1.52.816 3.357 1.221 5.51 1.221h7.7V0h-7.703z" fill="currentColor"></path>
</svg>